<svg width="788" height="1379" viewBox="0 0 788 1379" class="keymap" xmlns="http://www.w3.org/2000/svg" xmlns:xlink="http://www.w3.org/1999/xlink">
<defs>/* start glyphs */
<svg id="mdi:bluetooth">
<svg xmlns="http://www.w3.org/2000/svg" id="mdi-bluetooth" viewBox="0 0 24 24"><path d="M14.88,16.29L13,18.17V14.41M13,5.83L14.88,7.71L13,9.58M17.71,7.71L12,2H11V9.58L6.41,5L5,6.41L10.59,12L5,17.58L6.41,19L11,14.41V22H12L17.71,16.29L13.41,12L17.71,7.71Z" /></svg>
</svg>
<svg id="mdi:bluetooth-off">
<svg xmlns="http://www.w3.org/2000/svg" id="mdi-bluetooth-off" viewBox="0 0 24 24"><path d="M13,5.83L14.88,7.71L13.28,9.31L14.69,10.72L17.71,7.7L12,2H11V7.03L13,9.03M5.41,4L4,5.41L10.59,12L5,17.59L6.41,19L11,14.41V22H12L16.29,17.71L18.59,20L20,18.59M13,18.17V14.41L14.88,16.29" /></svg>
</svg>
<svg id="mdi:brightness-4">
<svg xmlns="http://www.w3.org/2000/svg" id="mdi-brightness-4" viewBox="0 0 24 24"><path d="M12,18C11.11,18 10.26,17.8 9.5,17.45C11.56,16.5 13,14.42 13,12C13,9.58 11.56,7.5 9.5,6.55C10.26,6.2 11.11,6 12,6A6,6 0 0,1 18,12A6,6 0 0,1 12,18M20,8.69V4H15.31L12,0.69L8.69,4H4V8.69L0.69,12L4,15.31V20H8.69L12,23.31L15.31,20H20V15.31L23.31,12L20,8.69Z" /></svg>
</svg>
<svg id="mdi:brightness-7">
<svg xmlns="http://www.w3.org/2000/svg" id="mdi-brightness-7" viewBox="0 0 24 24"><path d="M12,8A4,4 0 0,0 8,12A4,4 0 0,0 12,16A4,4 0 0,0 16,12A4,4 0 0,0 12,8M12,18A6,6 0 0,1 6,12A6,6 0 0,1 12,6A6,6 0 0,1 18,12A6,6 0 0,1 12,18M20,8.69V4H15.31L12,0.69L8.69,4H4V8.69L0.69,12L4,15.31V20H8.69L12,23.31L15.31,20H20V15.31L23.31,12L20,8.69Z" /></svg>
</svg>
<svg id="mdi:cosine-wave">
<svg xmlns="http://www.w3.org/2000/svg" id="mdi-cosine-wave" viewBox="0 0 24 24"><path d="M22 2V4C20.26 4 19 8.58 17.96 12.27C16.57 17.27 15.26 22 12 22C8.74 22 7.43 17.27 6.04 12.27C5 8.58 3.74 4 2 4V2C5.26 2 6.57 6.73 7.96 11.73C9 15.42 10.26 20 12 20C13.74 20 15 15.42 16.04 11.73C17.43 6.73 18.74 2 22 2Z" /></svg>
</svg>
<svg id="mdi:lightbulb-on">
<svg xmlns="http://www.w3.org/2000/svg" id="mdi-lightbulb-on" viewBox="0 0 24 24"><path d="M12,6A6,6 0 0,1 18,12C18,14.22 16.79,16.16 15,17.2V19A1,1 0 0,1 14,20H10A1,1 0 0,1 9,19V17.2C7.21,16.16 6,14.22 6,12A6,6 0 0,1 12,6M14,21V22A1,1 0 0,1 13,23H11A1,1 0 0,1 10,22V21H14M20,11H23V13H20V11M1,11H4V13H1V11M13,1V4H11V1H13M4.92,3.5L7.05,5.64L5.63,7.05L3.5,4.93L4.92,3.5M16.95,5.63L19.07,3.5L20.5,4.93L18.37,7.05L16.95,5.63Z" /></svg>
</svg>
<svg id="mdi:microsoft-windows-classic">
<svg xmlns="http://www.w3.org/2000/svg" id="mdi-microsoft-windows-classic" viewBox="0 0 24 24"><path d="M2.67,5.3V5.91L1.96,6.21V5.6L2.67,5.3M2.67,11.24V11.86L1.96,12.15V11.56L2.67,11.24M2.67,17.27V17.89L1.96,18.18V17.59L2.67,17.27M2.6,7.29V7.84L2.03,8.1V7.56L2.6,7.29M2.6,9.28V9.82L2.03,10.08V9.54L2.6,9.28M2.6,13.31V13.84L2.03,14.1V13.56L2.6,13.31M2.6,15.33V15.87L2.03,16.13V15.6L2.6,15.33M4.5,5.64V6.36L3.5,6.73V6L4.5,5.64M4.5,11.66V12.37L3.5,12.74V12.03L4.5,11.66M4.5,17.7V18.41L3.5,18.81V18.1L4.5,17.7M4.43,7.72V8.38L3.64,8.68V8L4.43,7.72M4.43,9.73V10.37L3.65,10.67V10L4.43,9.73M4.43,13.74V14.38L3.65,14.69V14.03L4.43,13.74M4.43,15.76V16.41L3.65,16.72V16.06L4.43,15.76M6.31,6.09V6.94L5.05,7.43V6.59L6.31,6.09M6.31,12.11V12.96L5.05,13.45V12.61L6.31,12.11M6.31,18.08V18.93L5.05,19.43V18.58L6.31,18.08M6.25,8.18V8.94L5.19,9.34V8.61L6.25,8.18M6.25,10.18V10.93L5.19,11.35V10.6L6.25,10.18M6.25,14.19V14.94L5.19,15.37V14.62L6.25,14.19M6.25,16.14V16.9L5.19,17.32V16.57L6.25,16.14M8.29,6.04V7.16L6.72,7.78V6.67L8.29,6.04M8.29,12.06V13.19L6.72,13.8V12.68L8.29,12.06M8.29,18.03V19.15L6.72,19.77V18.66L8.29,18.03M8.2,8.13V9.16L6.89,9.69V8.66L8.2,8.13M8.2,10.13V11.15L6.89,11.68V10.65L8.2,10.13M8.2,14.15V15.18L6.89,15.7V14.67L8.2,14.15M8.2,16.1V17.12L6.89,17.64V16.63L8.2,16.1M10.34,5.85V7.32L8.61,8V6.56L10.34,5.85M10.34,11.87V13.33L8.61,14.03V12.56L10.34,11.87M10.34,17.84V19.3L8.61,20V18.54L10.34,17.84M10.26,8.05V9.28L8.78,9.87V8.64L10.26,8.05M10.26,9.97V11.2L8.78,11.78V10.56L10.26,9.97M10.26,14.06V15.31L8.78,15.88V14.65L10.26,14.06M10.26,16V17.25L8.78,17.84V16.6L10.26,16M12.45,5.12V7.12L10.59,7.89V6C11.23,5.65 11.85,5.35 12.45,5.12M12.45,7.33V9.06L10.59,9.84V8.1L12.45,7.33M12.45,9.28V11.04L10.59,11.82V10.06L12.45,9.28M12.45,11.25V13L10.59,13.77V12L12.45,11.25M12.45,13.21V15L10.59,15.78V14L12.45,13.21M12.45,15.21V16.96L10.59,17.76V16L12.45,15.21M12.45,17.17V19.04C11.72,19.32 11.1,19.59 10.59,19.84V17.96L12.45,17.17M22.04,5.18V19.23C20.85,18.44 19.37,18.05 17.59,18.05C16.12,18.05 14.47,18.35 12.65,18.96V17.06C13.62,16.69 14.68,16.42 15.84,16.26V11.69C14.86,11.81 13.8,12.15 12.65,12.71V11.4C13.64,10.94 14.71,10.63 15.84,10.46V6C14.82,6.18 13.76,6.53 12.65,7V5.03C14.27,4.34 15.86,4 17.41,4C19.09,4 20.63,4.39 22.04,5.18M20.15,6.41C19.39,6 18.5,5.82 17.42,5.82C17.29,5.82 17.17,5.83 17.05,5.84V10.38L17.46,10.37C18.37,10.37 19.27,10.5 20.15,10.8V6.41M20.15,12.1C19.34,11.74 18.43,11.56 17.44,11.56C17.31,11.56 17.18,11.57 17.05,11.58V16.16H17.46C18.45,16.16 19.35,16.28 20.15,16.53V12.1H20.15Z" /></svg>
</svg>
<svg id="mdi:monitor">
<svg xmlns="http://www.w3.org/2000/svg" id="mdi-monitor" viewBox="0 0 24 24"><path d="M21,16H3V4H21M21,2H3C1.89,2 1,2.89 1,4V16A2,2 0 0,0 3,18H10V20H8V22H16V20H14V18H21A2,2 0 0,0 23,16V4C23,2.89 22.1,2 21,2Z" /></svg>
</svg>
<svg id="mdi:palette">
<svg xmlns="http://www.w3.org/2000/svg" id="mdi-palette" viewBox="0 0 24 24"><path d="M17.5,12A1.5,1.5 0 0,1 16,10.5A1.5,1.5 0 0,1 17.5,9A1.5,1.5 0 0,1 19,10.5A1.5,1.5 0 0,1 17.5,12M14.5,8A1.5,1.5 0 0,1 13,6.5A1.5,1.5 0 0,1 14.5,5A1.5,1.5 0 0,1 16,6.5A1.5,1.5 0 0,1 14.5,8M9.5,8A1.5,1.5 0 0,1 8,6.5A1.5,1.5 0 0,1 9.5,5A1.5,1.5 0 0,1 11,6.5A1.5,1.5 0 0,1 9.5,8M6.5,12A1.5,1.5 0 0,1 5,10.5A1.5,1.5 0 0,1 6.5,9A1.5,1.5 0 0,1 8,10.5A1.5,1.5 0 0,1 6.5,12M12,3A9,9 0 0,0 3,12A9,9 0 0,0 12,21A1.5,1.5 0 0,0 13.5,19.5C13.5,19.11 13.35,18.76 13.11,18.5C12.88,18.23 12.73,17.88 12.73,17.5A1.5,1.5 0 0,1 14.23,16H16A5,5 0 0,0 21,11C21,6.58 16.97,3 12,3Z" /></svg>
</svg>
<svg id="mdi:palette-outline">
<svg xmlns="http://www.w3.org/2000/svg" id="mdi-palette-outline" viewBox="0 0 24 24"><path d="M12,22A10,10 0 0,1 2,12A10,10 0 0,1 12,2C17.5,2 22,6 22,11A6,6 0 0,1 16,17H14.2C13.9,17 13.7,17.2 13.7,17.5C13.7,17.6 13.8,17.7 13.8,17.8C14.2,18.3 14.4,18.9 14.4,19.5C14.5,20.9 13.4,22 12,22M12,4A8,8 0 0,0 4,12A8,8 0 0,0 12,20C12.3,20 12.5,19.8 12.5,19.5C12.5,19.3 12.4,19.2 12.4,19.1C12,18.6 11.8,18.1 11.8,17.5C11.8,16.1 12.9,15 14.3,15H16A4,4 0 0,0 20,11C20,7.1 16.4,4 12,4M6.5,10C7.3,10 8,10.7 8,11.5C8,12.3 7.3,13 6.5,13C5.7,13 5,12.3 5,11.5C5,10.7 5.7,10 6.5,10M9.5,6C10.3,6 11,6.7 11,7.5C11,8.3 10.3,9 9.5,9C8.7,9 8,8.3 8,7.5C8,6.7 8.7,6 9.5,6M14.5,6C15.3,6 16,6.7 16,7.5C16,8.3 15.3,9 14.5,9C13.7,9 13,8.3 13,7.5C13,6.7 13.7,6 14.5,6M17.5,10C18.3,10 19,10.7 19,11.5C19,12.3 18.3,13 17.5,13C16.7,13 16,12.3 16,11.5C16,10.7 16.7,10 17.5,10Z" /></svg>
</svg>
<svg id="mdi:palette-swatch">
<svg xmlns="http://www.w3.org/2000/svg" id="mdi-palette-swatch" viewBox="0 0 24 24"><path d="M2.53,19.65L3.87,20.21V11.18L1.44,17.04C1.03,18.06 1.5,19.23 2.53,19.65M22.03,15.95L17.07,4C16.76,3.23 16.03,2.77 15.26,2.75C15,2.75 14.73,2.79 14.47,2.9L7.1,5.95C6.35,6.26 5.89,7 5.87,7.75C5.86,8 5.91,8.29 6,8.55L11,20.5C11.29,21.28 12.03,21.74 12.81,21.75C13.07,21.75 13.33,21.7 13.58,21.6L20.94,18.55C21.96,18.13 22.45,16.96 22.03,15.95M7.88,8.75A1,1 0 0,1 6.88,7.75A1,1 0 0,1 7.88,6.75C8.43,6.75 8.88,7.2 8.88,7.75C8.88,8.3 8.43,8.75 7.88,8.75M5.88,19.75A2,2 0 0,0 7.88,21.75H9.33L5.88,13.41V19.75Z" /></svg>
</svg>
<svg id="mdi:palette-swatch-outline">
<svg xmlns="http://www.w3.org/2000/svg" id="mdi-palette-swatch-outline" viewBox="0 0 24 24"><path d="M2.5 19.6L3.8 20.2V11.2L1.4 17C1 18.1 1.5 19.2 2.5 19.6M15.2 4.8L20.2 16.8L12.9 19.8L7.9 7.9V7.8L15.2 4.8M15.3 2.8C15 2.8 14.8 2.8 14.5 2.9L7.1 6C6.4 6.3 5.9 7 5.9 7.8C5.9 8 5.9 8.3 6 8.6L11 20.5C11.3 21.3 12 21.7 12.8 21.7C13.1 21.7 13.3 21.7 13.6 21.6L21 18.5C22 18.1 22.5 16.9 22.1 15.9L17.1 4C16.8 3.2 16 2.8 15.3 2.8M10.5 9.9C9.9 9.9 9.5 9.5 9.5 8.9S9.9 7.9 10.5 7.9C11.1 7.9 11.5 8.4 11.5 8.9S11.1 9.9 10.5 9.9M5.9 19.8C5.9 20.9 6.8 21.8 7.9 21.8H9.3L5.9 13.5V19.8Z" /></svg>
</svg>
<svg id="mdi:usb">
<svg xmlns="http://www.w3.org/2000/svg" id="mdi-usb" viewBox="0 0 24 24"><path d="M15,7V11H16V13H13V5H15L12,1L9,5H11V13H8V10.93C8.7,10.56 9.2,9.85 9.2,9C9.2,7.78 8.21,6.8 7,6.8C5.78,6.8 4.8,7.78 4.8,9C4.8,9.85 5.3,10.56 6,10.93V13A2,2 0 0,0 8,15H11V18.05C10.29,18.41 9.8,19.15 9.8,20A2.2,2.2 0 0,0 12,22.2A2.2,2.2 0 0,0 14.2,20C14.2,19.15 13.71,18.41 13,18.05V15H16A2,2 0 0,0 18,13V11H19V7H15Z" /></svg>
</svg>
</defs>/* end glyphs */
<style>/* inherit to force styles through use tags */
svg path {
    fill: inherit;
}

/* font and background color specifications */
svg.keymap {
    font-family: SFMono-Regular,Consolas,Liberation Mono,Menlo,monospace;
    font-size: 14px;
    font-kerning: normal;
    text-rendering: optimizeLegibility;
    fill: #24292e;
}

/* default key styling */
rect.key {
    fill: #f6f8fa;
}

rect.key, rect.combo {
    stroke: #c9cccf;
    stroke-width: 1;
}

/* default key side styling, only used is draw_key_sides is set */
rect.side {
    filter: brightness(90%);
}

/* color accent for combo boxes */
rect.combo, rect.combo-separate {
    fill: #cdf;
}

/* color accent for held keys */
rect.held, rect.combo.held {
    fill: #fdd;
}

/* color accent for ghost (optional) keys */
rect.ghost, rect.combo.ghost {
    stroke-dasharray: 4, 4;
    stroke-width: 2;
}

text {
    text-anchor: middle;
    dominant-baseline: middle;
}

/* styling for layer labels */
text.label {
    font-weight: bold;
    text-anchor: start;
    stroke: white;
    stroke-width: 4;
    paint-order: stroke;
}

/* styling for optional footer */
text.footer {
    text-anchor: end;
    dominant-baseline: auto;
    stroke: white;
    stroke-width: 4;
    paint-order: stroke;
}

/* styling for combo tap, and key hold/shifted label text */
text.combo, text.hold, text.shifted {
    font-size: 11px;
}

text.hold {
    text-anchor: middle;
    dominant-baseline: auto;
}

text.shifted {
    text-anchor: middle;
    dominant-baseline: hanging;
}

text.layer-activator {
    text-decoration: underline;
}

/* styling for hold/shifted label text in combo box */
text.combo.hold, text.combo.shifted {
    font-size: 8px;
}

/* lighter symbol for transparent keys */
text.trans {
    fill: #7b7e81;
}

/* styling for combo dendrons */
path.combo {
    stroke-width: 1;
    stroke: gray;
    fill: none;
}

/* Start Tabler Icons Cleanup */
/* cannot use height/width with glyphs */
.icon-tabler > path {
    fill: inherit;
    stroke: inherit;
    stroke-width: 2;
}
/* hide tabler's default box */
.icon-tabler > path[stroke="none"][fill="none"] {
    visibility: hidden;
}
/* End Tabler Icons Cleanup */

svg.keymap { fill: #d1d6db; }
rect.key { fill: #3f4750; }
rect.key, rect.combo { stroke: #60666c; }
rect.combo, rect.combo-separate { fill: #1f3d7a; }
rect.held, rect.combo.held { fill: #854747; }
text.label, text.footer { stroke: black; }
text.trans { fill: #7e8184; }
path.combo { stroke: #7f7f7f; }
</style>
<g transform="translate(30, 0)" class="layer-default">
<text x="0" y="28" class="label" id="default">default:</text>
<g transform="translate(0, 56)">
<g transform="translate(28, 49)" class="key keypos-0">
<rect rx="6" ry="6" x="-26" y="-26" width="52" height="52" class="key"/>
<text x="0" y="0" class="key tap">Q</text>
<text x="0" y="-24" class="key shifted">@</text>
</g>
<g transform="translate(84, 35)" class="key keypos-1">
<rect rx="6" ry="6" x="-26" y="-26" width="52" height="52" class="key"/>
<text x="0" y="0" class="key tap">W</text>
</g>
<g transform="translate(140, 28)" class="key keypos-2">
<rect rx="6" ry="6" x="-26" y="-26" width="52" height="52" class="key"/>
<text x="0" y="0" class="key tap">E</text>
<text x="0" y="-24" class="key shifted">€</text>
</g>
<g transform="translate(196, 35)" class="key keypos-3">
<rect rx="6" ry="6" x="-26" y="-26" width="52" height="52" class="key"/>
<text x="0" y="0" class="key tap">R</text>
</g>
<g transform="translate(252, 42)" class="key keypos-4">
<rect rx="6" ry="6" x="-26" y="-26" width="52" height="52" class="key"/>
<text x="0" y="0" class="key tap">T</text>
</g>
<g transform="translate(476, 42)" class="key keypos-5">
<rect rx="6" ry="6" x="-26" y="-26" width="52" height="52" class="key"/>
<text x="0" y="0" class="key tap">Y</text>
</g>
<g transform="translate(532, 35)" class="key keypos-6">
<rect rx="6" ry="6" x="-26" y="-26" width="52" height="52" class="key"/>
<text x="0" y="0" class="key tap">U</text>
</g>
<g transform="translate(588, 28)" class="key keypos-7">
<rect rx="6" ry="6" x="-26" y="-26" width="52" height="52" class="key"/>
<text x="0" y="0" class="key tap">I</text>
</g>
<g transform="translate(644, 35)" class="key keypos-8">
<rect rx="6" ry="6" x="-26" y="-26" width="52" height="52" class="key"/>
<text x="0" y="0" class="key tap">O</text>
</g>
<g transform="translate(700, 49)" class="key keypos-9">
<rect rx="6" ry="6" x="-26" y="-26" width="52" height="52" class="key"/>
<text x="0" y="0" class="key tap">P</text>
</g>
<g transform="translate(28, 105)" class="key keypos-10">
<rect rx="6" ry="6" x="-26" y="-26" width="52" height="52" class="key"/>
<text x="0" y="0" class="key tap">A</text>
</g>
<g transform="translate(84, 91)" class="key keypos-11">
<rect rx="6" ry="6" x="-26" y="-26" width="52" height="52" class="key"/>
<text x="0" y="0" class="key tap">S</text>
</g>
<g transform="translate(140, 84)" class="key keypos-12">
<rect rx="6" ry="6" x="-26" y="-26" width="52" height="52" class="key"/>
<text x="0" y="0" class="key tap">D</text>
<text x="0" y="24" class="key hold">CTRL</text>
</g>
<g transform="translate(196, 91)" class="key keypos-13">
<rect rx="6" ry="6" x="-26" y="-26" width="52" height="52" class="key"/>
<text x="0" y="0" class="key tap">F</text>
<text x="0" y="24" class="key hold">Shift</text>
</g>
<g transform="translate(252, 98)" class="key keypos-14">
<rect rx="6" ry="6" x="-26" y="-26" width="52" height="52" class="key"/>
<text x="0" y="0" class="key tap">G</text>
</g>
<g transform="translate(476, 98)" class="key keypos-15">
<rect rx="6" ry="6" x="-26" y="-26" width="52" height="52" class="key"/>
<text x="0" y="0" class="key tap">H</text>
</g>
<g transform="translate(532, 91)" class="key keypos-16">
<rect rx="6" ry="6" x="-26" y="-26" width="52" height="52" class="key"/>
<text x="0" y="0" class="key tap">J</text>
<text x="0" y="24" class="key hold">Shift</text>
</g>
<g transform="translate(588, 84)" class="key keypos-17">
<rect rx="6" ry="6" x="-26" y="-26" width="52" height="52" class="key"/>
<text x="0" y="0" class="key tap">K</text>
<text x="0" y="24" class="key hold">CTRL</text>
</g>
<g transform="translate(644, 91)" class="key keypos-18">
<rect rx="6" ry="6" x="-26" y="-26" width="52" height="52" class="key"/>
<text x="0" y="0" class="key tap">L</text>
</g>
<g transform="translate(700, 105)" class="key keypos-19">
<rect rx="6" ry="6" x="-26" y="-26" width="52" height="52" class="key"/>
<text x="0" y="0" class="key tap">&#x27;</text>
</g>
<g transform="translate(28, 161)" class="key keypos-20">
<rect rx="6" ry="6" x="-26" y="-26" width="52" height="52" class="key"/>
<text x="0" y="0" class="key tap">Z</text>
</g>
<g transform="translate(84, 147)" class="key keypos-21">
<rect rx="6" ry="6" x="-26" y="-26" width="52" height="52" class="key"/>
<text x="0" y="0" class="key tap">X</text>
<text x="0" y="24" class="key hold">Alt</text>
</g>
<g transform="translate(140, 140)" class="key keypos-22">
<rect rx="6" ry="6" x="-26" y="-26" width="52" height="52" class="key"/>
<text x="0" y="0" class="key tap">C</text>
</g>
<g transform="translate(196, 147)" class="key keypos-23">
<rect rx="6" ry="6" x="-26" y="-26" width="52" height="52" class="key"/>
<text x="0" y="0" class="key tap">V</text>
</g>
<g transform="translate(252, 154)" class="key keypos-24">
<rect rx="6" ry="6" x="-26" y="-26" width="52" height="52" class="key"/>
<text x="0" y="0" class="key tap">B</text>
</g>
<g transform="translate(476, 154)" class="key keypos-25">
<rect rx="6" ry="6" x="-26" y="-26" width="52" height="52" class="key"/>
<text x="0" y="0" class="key tap">N</text>
</g>
<g transform="translate(532, 147)" class="key keypos-26">
<rect rx="6" ry="6" x="-26" y="-26" width="52" height="52" class="key"/>
<text x="0" y="0" class="key tap">M</text>
<text x="0" y="-24" class="key shifted">µ</text>
</g>
<g transform="translate(588, 140)" class="key keypos-27">
<rect rx="6" ry="6" x="-26" y="-26" width="52" height="52" class="key"/>
<text x="0" y="0" class="key tap">,</text>
</g>
<g transform="translate(644, 147)" class="key keypos-28">
<rect rx="6" ry="6" x="-26" y="-26" width="52" height="52" class="key"/>
<text x="0" y="0" class="key tap">.</text>
<text x="0" y="-24" class="key shifted">AltGr</text>
</g>
<g transform="translate(700, 161)" class="key keypos-29">
<rect rx="6" ry="6" x="-26" y="-26" width="52" height="52" class="key"/>
<text x="0" y="0" class="key tap">⌦</text>
</g>
<g transform="translate(168, 205)" class="key ghost keypos-30">
<rect rx="6" ry="6" x="-26" y="-26" width="52" height="52" class="key ghost"/>
<text x="0" y="0" class="key ghost tap">⏯</text>
</g>
<g transform="translate(230, 213) rotate(15.0)" class="key keypos-31">
<rect rx="6" ry="6" x="-26" y="-26" width="52" height="52" class="key"/>
<text x="0" y="0" class="key tap">ESC</text>
<text x="0" y="24" class="key hold">Raise</text>
</g>
<g transform="translate(295, 224) rotate(30.0)" class="key keypos-32">
<rect rx="6" ry="6" x="-26" y="-40" width="52" height="80" class="key"/>
<text x="0" y="0" class="key tap">⇥</text>
<text x="0" y="38" class="key hold">Lower</text>
</g>
<g transform="translate(433, 224) rotate(-30.0)" class="key keypos-33">
<rect rx="6" ry="6" x="-26" y="-40" width="52" height="80" class="key"/>
<text x="0" y="0" class="key tap">↵</text>
<text x="0" y="38" class="key hold">Lower</text>
</g>
<g transform="translate(498, 213) rotate(-15.0)" class="key keypos-34">
<rect rx="6" ry="6" x="-26" y="-26" width="52" height="52" class="key"/>
<text x="0" y="0" class="key tap">␣</text>
<text x="0" y="24" class="key hold">Raise</text>
</g>
<g transform="translate(560, 205)" class="key keypos-35">
<rect rx="6" ry="6" x="-26" y="-26" width="52" height="52" class="key"/>
<text x="0" y="0" class="key tap">⌫</text>
<text x="0" y="24" class="key hold">Adjust</text>
</g>
<g class="combo combopos-0">
<rect rx="6" ry="6" x="126" y="43" width="28" height="26" class="combo"/>
<text x="140" y="56" class="combo tap">!</text>
</g>
<g class="combo combopos-1">
<rect rx="6" ry="6" x="602" y="130" width="28" height="26" class="combo"/>
<text x="616" y="144" class="combo tap">:</text>
</g>
<g class="combo combopos-2">
<rect rx="6" ry="6" x="98" y="130" width="28" height="26" class="combo"/>
<text x="112" y="144" class="combo tap">
<tspan x="112" dy="-0.6em">CREO</tspan><tspan x="112" dy="1.2em">(C+A)</tspan>
</text>
</g>
<g class="combo combopos-3">
<rect rx="6" ry="6" x="602" y="74" width="28" height="26" class="combo"/>
<text x="616" y="88" class="combo tap">\</text>
</g>
<g class="combo combopos-4">
<rect rx="6" ry="6" x="98" y="74" width="28" height="26" class="combo"/>
<text x="112" y="88" class="combo tap">/</text>
</g>
<g class="combo combopos-5">
<rect rx="6" ry="6" x="658" y="85" width="28" height="26" class="combo"/>
<text x="672" y="98" class="combo tap">-</text>
</g>
<g class="combo combopos-6">
<rect rx="6" ry="6" x="42" y="85" width="28" height="26" class="combo"/>
<text x="56" y="98" class="combo tap">_</text>
</g>
<g class="combo combopos-7">
<path d="M364,91 l-149,0" class="combo"/>
<path d="M364,91 l149,0" class="combo"/>
<rect rx="6" ry="6" x="350" y="78" width="28" height="26" class="combo"/>
<text x="364" y="91" class="combo tap">
<tspan x="364" dy="-0.6em">CAPS</tspan><tspan x="364" dy="1.2em">WORD</tspan>
</text>
</g>
<g class="combo combopos-8">
<rect rx="6" ry="6" x="154" y="74" width="28" height="26" class="combo"/>
<text x="168" y="88" class="combo tap">&quot;</text>
</g>
<g class="combo combopos-9">
<rect rx="6" ry="6" x="546" y="74" width="28" height="26" class="combo"/>
<text x="560" y="88" class="combo tap">?</text>
</g>
<g class="combo combopos-10">
<rect rx="6" ry="6" x="14" y="64" width="28" height="26" class="combo"/>
<text x="28" y="77" class="combo tap">Ä</text>
</g>
<g class="combo combopos-11">
<rect rx="6" ry="6" x="630" y="50" width="28" height="26" class="combo"/>
<text x="644" y="63" class="combo tap">Ö</text>
</g>
<g class="combo combopos-12">
<rect rx="6" ry="6" x="518" y="50" width="28" height="26" class="combo"/>
<text x="532" y="63" class="combo tap">Ü</text>
</g>
<g class="combo combopos-13">
<rect rx="6" ry="6" x="70" y="50" width="28" height="26" class="combo"/>
<text x="84" y="63" class="combo tap">ß</text>
</g>
</g>
</g>
<g transform="translate(30, 331)" class="layer-lower">
<text x="0" y="28" class="label" id="lower">lower:</text>
<g transform="translate(0, 56)">
<g transform="translate(28, 49)" class="key keypos-0">
<rect rx="6" ry="6" x="-26" y="-26" width="52" height="52" class="key"/>
<text x="0" y="0" class="key tap">^</text>
</g>
<g transform="translate(84, 35)" class="key keypos-1">
<rect rx="6" ry="6" x="-26" y="-26" width="52" height="52" class="key"/>
<text x="0" y="0" class="key tap">&lt;</text>
</g>
<g transform="translate(140, 28)" class="key keypos-2">
<rect rx="6" ry="6" x="-26" y="-26" width="52" height="52" class="key"/>
<text x="0" y="0" class="key tap">&gt;</text>
</g>
<g transform="translate(196, 35)" class="key keypos-3">
<rect rx="6" ry="6" x="-26" y="-26" width="52" height="52" class="key"/>
<text x="0" y="0" class="key tap">Ø</text>
</g>
<g transform="translate(252, 42)" class="key keypos-4">
<rect rx="6" ry="6" x="-26" y="-26" width="52" height="52" class="key"/>
<text x="0" y="0" class="key tap">☻</text>
</g>
<g transform="translate(476, 42)" class="key keypos-5">
<rect rx="6" ry="6" x="-26" y="-26" width="52" height="52" class="key"/>
<text x="0" y="0" class="key tap">°</text>
</g>
<g transform="translate(532, 35)" class="key keypos-6">
<rect rx="6" ry="6" x="-26" y="-26" width="52" height="52" class="key"/>
<text x="0" y="0" class="key tap">()</text>
</g>
<g transform="translate(588, 28)" class="key keypos-7">
<rect rx="6" ry="6" x="-26" y="-26" width="52" height="52" class="key"/>
<text x="0" y="0" class="key tap">{}</text>
</g>
<g transform="translate(644, 35)" class="key keypos-8">
<rect rx="6" ry="6" x="-26" y="-26" width="52" height="52" class="key"/>
<text x="0" y="0" class="key tap">[]</text>
</g>
<g transform="translate(700, 49)" class="key keypos-9">
<rect rx="6" ry="6" x="-26" y="-26" width="52" height="52" class="key"/>
<text x="0" y="0" class="key tap">
<tspan x="0" dy="-0.6em">Sft+</tspan><tspan x="0" dy="1.2em">\</tspan>
</text>
</g>
<g transform="translate(28, 105)" class="key keypos-10">
<rect rx="6" ry="6" x="-26" y="-26" width="52" height="52" class="key"/>
<text x="0" y="0" class="key tap">1</text>
<text x="0" y="-24" class="key shifted">!</text>
</g>
<g transform="translate(84, 91)" class="key keypos-11">
<rect rx="6" ry="6" x="-26" y="-26" width="52" height="52" class="key"/>
<text x="0" y="0" class="key tap">2</text>
<text x="0" y="-24" class="key shifted">&quot;</text>
</g>
<g transform="translate(140, 84)" class="key keypos-12">
<rect rx="6" ry="6" x="-26" y="-26" width="52" height="52" class="key"/>
<text x="0" y="0" class="key tap">3</text>
<text x="0" y="-24" class="key shifted">§</text>
</g>
<g transform="translate(196, 91)" class="key keypos-13">
<rect rx="6" ry="6" x="-26" y="-26" width="52" height="52" class="key"/>
<text x="0" y="0" class="key tap">4</text>
<text x="0" y="-24" class="key shifted">$</text>
</g>
<g transform="translate(252, 98)" class="key keypos-14">
<rect rx="6" ry="6" x="-26" y="-26" width="52" height="52" class="key"/>
<text x="0" y="0" class="key tap">5</text>
<text x="0" y="-24" class="key shifted">%</text>
</g>
<g transform="translate(476, 98)" class="key keypos-15">
<rect rx="6" ry="6" x="-26" y="-26" width="52" height="52" class="key"/>
<text x="0" y="0" class="key tap">6</text>
<text x="0" y="-24" class="key shifted">&amp;</text>
</g>
<g transform="translate(532, 91)" class="key keypos-16">
<rect rx="6" ry="6" x="-26" y="-26" width="52" height="52" class="key"/>
<text x="0" y="0" class="key tap">7</text>
<text x="0" y="-24" class="key shifted">/</text>
</g>
<g transform="translate(588, 84)" class="key keypos-17">
<rect rx="6" ry="6" x="-26" y="-26" width="52" height="52" class="key"/>
<text x="0" y="0" class="key tap">8</text>
<text x="0" y="-24" class="key shifted">(</text>
</g>
<g transform="translate(644, 91)" class="key keypos-18">
<rect rx="6" ry="6" x="-26" y="-26" width="52" height="52" class="key"/>
<text x="0" y="0" class="key tap">9</text>
<text x="0" y="-24" class="key shifted">)</text>
</g>
<g transform="translate(700, 105)" class="key keypos-19">
<rect rx="6" ry="6" x="-26" y="-26" width="52" height="52" class="key"/>
<text x="0" y="0" class="key tap">0</text>
<text x="0" y="-24" class="key shifted">=</text>
</g>
<g transform="translate(28, 161)" class="key keypos-20">
<rect rx="6" ry="6" x="-26" y="-26" width="52" height="52" class="key"/>
<text x="0" y="0" class="key tap">~</text>
</g>
<g transform="translate(84, 147)" class="key keypos-21">
<rect rx="6" ry="6" x="-26" y="-26" width="52" height="52" class="key"/>
<text x="0" y="0" class="key tap">%</text>
</g>
<g transform="translate(140, 140)" class="key keypos-22">
<rect rx="6" ry="6" x="-26" y="-26" width="52" height="52" class="key"/>
<text x="0" y="0" class="key tap">|</text>
</g>
<g transform="translate(196, 147)" class="key keypos-23">
<rect rx="6" ry="6" x="-26" y="-26" width="52" height="52" class="key"/>
<text x="0" y="0" class="key tap">$</text>
</g>
<g transform="translate(252, 154)" class="key keypos-24">
<rect rx="6" ry="6" x="-26" y="-26" width="52" height="52" class="key"/>
<text x="0" y="0" class="key tap">#</text>
<text x="0" y="-24" class="key shifted">&#x27;</text>
</g>
<g transform="translate(476, 154)" class="key keypos-25">
<rect rx="6" ry="6" x="-26" y="-26" width="52" height="52" class="key"/>
<text x="0" y="0" class="key tap">+</text>
</g>
<g transform="translate(532, 147)" class="key keypos-26">
<rect rx="6" ry="6" x="-26" y="-26" width="52" height="52" class="key"/>
<text x="0" y="0" class="key tap">*</text>
</g>
<g transform="translate(588, 140)" class="key trans keypos-27">
<rect rx="6" ry="6" x="-26" y="-26" width="52" height="52" class="key trans"/>
<text x="0" y="0" class="key trans tap">▽</text>
</g>
<g transform="translate(644, 147)" class="key trans keypos-28">
<rect rx="6" ry="6" x="-26" y="-26" width="52" height="52" class="key trans"/>
<text x="0" y="0" class="key trans tap">▽</text>
</g>
<g transform="translate(700, 161)" class="key keypos-29">
<rect rx="6" ry="6" x="-26" y="-26" width="52" height="52" class="key"/>
<text x="0" y="0" class="key tap">=</text>
</g>
<g transform="translate(168, 205)" class="key ghost keypos-30">
<rect rx="6" ry="6" x="-26" y="-26" width="52" height="52" class="key ghost"/>
<use href="#mdi:bluetooth-off" xlink:href="#mdi:bluetooth-off" x="-7" y="-7" height="14" width="14.0" class="key ghost tap glyph mdi:bluetooth-off"/>
<text x="0" y="-24" class="key ghost shifted">CLR 5s</text>
</g>
<g transform="translate(230, 213) rotate(15.0)" class="key keypos-31">
<rect rx="6" ry="6" x="-26" y="-26" width="52" height="52" class="key"/>
<use href="#mdi:microsoft-windows-classic" xlink:href="#mdi:microsoft-windows-classic" x="-7" y="-7" height="14" width="14.0" class="key tap glyph mdi:microsoft-windows-classic"/>
</g>
<g transform="translate(295, 224) rotate(30.0)" class="key held keypos-32">
<rect rx="6" ry="6" x="-26" y="-40" width="52" height="80" class="key held"/>
<text x="0" y="0" class="key held tap">
<tspan x="0" dy="-0.6em">⤒</tspan><tspan x="0" dy="1.2em">Pos1</tspan>
</text>
</g>
<g transform="translate(433, 224) rotate(-30.0)" class="key held keypos-33">
<rect rx="6" ry="6" x="-26" y="-40" width="52" height="80" class="key held"/>
<text x="0" y="0" class="key held tap">
<tspan x="0" dy="-0.6em">⤓</tspan><tspan x="0" dy="1.2em">End</tspan>
</text>
</g>
<g transform="translate(498, 213) rotate(-15.0)" class="key keypos-34">
<rect rx="6" ry="6" x="-26" y="-26" width="52" height="52" class="key"/>
<use href="#mdi:monitor" xlink:href="#mdi:monitor" x="-7" y="-7" height="14" width="14.0" class="key tap glyph mdi:monitor"/>
<text x="0" y="-24" class="key shifted">Show</text>
</g>
<g transform="translate(560, 205)" class="key trans keypos-35">
<rect rx="6" ry="6" x="-26" y="-26" width="52" height="52" class="key trans"/>
<text x="0" y="0" class="key trans tap">▽</text>
</g>
<g class="combo combopos-0">
<rect rx="6" ry="6" x="126" y="43" width="28" height="26" class="combo"/>
<text x="140" y="56" class="combo tap">!</text>
</g>
<g class="combo combopos-1">
<rect rx="6" ry="6" x="602" y="130" width="28" height="26" class="combo"/>
<text x="616" y="144" class="combo tap">:</text>
</g>
<g class="combo combopos-2">
<rect rx="6" ry="6" x="602" y="74" width="28" height="26" class="combo"/>
<text x="616" y="88" class="combo tap">\</text>
</g>
<g class="combo combopos-3">
<rect rx="6" ry="6" x="98" y="74" width="28" height="26" class="combo"/>
<text x="112" y="88" class="combo tap">/</text>
</g>
<g class="combo combopos-4">
<rect rx="6" ry="6" x="658" y="85" width="28" height="26" class="combo"/>
<text x="672" y="98" class="combo tap">-</text>
</g>
<g class="combo combopos-5">
<rect rx="6" ry="6" x="42" y="85" width="28" height="26" class="combo"/>
<text x="56" y="98" class="combo tap">_</text>
</g>
<g class="combo combopos-6">
<rect rx="6" ry="6" x="154" y="74" width="28" height="26" class="combo"/>
<text x="168" y="88" class="combo tap">&quot;</text>
</g>
<g class="combo combopos-7">
<rect rx="6" ry="6" x="546" y="74" width="28" height="26" class="combo"/>
<text x="560" y="88" class="combo tap">?</text>
</g>
</g>
</g>
<g transform="translate(30, 661)" class="layer-raise">
<text x="0" y="28" class="label" id="raise">raise:</text>
<g transform="translate(0, 56)">
<g transform="translate(28, 49)" class="key keypos-0">
<rect rx="6" ry="6" x="-26" y="-26" width="52" height="52" class="key"/>
<text x="0" y="0" class="key tap">F1</text>
</g>
<g transform="translate(84, 35)" class="key keypos-1">
<rect rx="6" ry="6" x="-26" y="-26" width="52" height="52" class="key"/>
<text x="0" y="0" class="key tap">F2</text>
</g>
<g transform="translate(140, 28)" class="key keypos-2">
<rect rx="6" ry="6" x="-26" y="-26" width="52" height="52" class="key"/>
<text x="0" y="0" class="key tap">F3</text>
</g>
<g transform="translate(196, 35)" class="key keypos-3">
<rect rx="6" ry="6" x="-26" y="-26" width="52" height="52" class="key"/>
<text x="0" y="0" class="key tap">F4</text>
</g>
<g transform="translate(252, 42)" class="key keypos-4">
<rect rx="6" ry="6" x="-26" y="-26" width="52" height="52" class="key"/>
<text x="0" y="0" class="key tap">F5</text>
</g>
<g transform="translate(476, 42)" class="key keypos-5">
<rect rx="6" ry="6" x="-26" y="-26" width="52" height="52" class="key"/>
<text x="0" y="0" class="key tap">F6</text>
</g>
<g transform="translate(532, 35)" class="key keypos-6">
<rect rx="6" ry="6" x="-26" y="-26" width="52" height="52" class="key"/>
<text x="0" y="0" class="key tap">F7</text>
</g>
<g transform="translate(588, 28)" class="key keypos-7">
<rect rx="6" ry="6" x="-26" y="-26" width="52" height="52" class="key"/>
<text x="0" y="0" class="key tap">F8</text>
</g>
<g transform="translate(644, 35)" class="key keypos-8">
<rect rx="6" ry="6" x="-26" y="-26" width="52" height="52" class="key"/>
<text x="0" y="0" class="key tap">F9</text>
</g>
<g transform="translate(700, 49)" class="key keypos-9">
<rect rx="6" ry="6" x="-26" y="-26" width="52" height="52" class="key"/>
<text x="0" y="0" class="key tap">F10</text>
</g>
<g transform="translate(28, 105)" class="key trans keypos-10">
<rect rx="6" ry="6" x="-26" y="-26" width="52" height="52" class="key trans"/>
<text x="0" y="0" class="key trans tap">▽</text>
</g>
<g transform="translate(84, 91)" class="key trans keypos-11">
<rect rx="6" ry="6" x="-26" y="-26" width="52" height="52" class="key trans"/>
<text x="0" y="0" class="key trans tap">▽</text>
</g>
<g transform="translate(140, 84)" class="key keypos-12">
<rect rx="6" ry="6" x="-26" y="-26" width="52" height="52" class="key"/>
<text x="0" y="0" class="key tap">
<tspan x="0" dy="-0.6em">🖱</tspan><tspan x="0" dy="1.2em">RMB</tspan>
</text>
</g>
<g transform="translate(196, 91)" class="key keypos-13">
<rect rx="6" ry="6" x="-26" y="-26" width="52" height="52" class="key"/>
<text x="0" y="0" class="key tap">
<tspan x="0" dy="-0.6em">🖱</tspan><tspan x="0" dy="1.2em">LMB</tspan>
</text>
</g>
<g transform="translate(252, 98)" class="key trans keypos-14">
<rect rx="6" ry="6" x="-26" y="-26" width="52" height="52" class="key trans"/>
<text x="0" y="0" class="key trans tap">▽</text>
</g>
<g transform="translate(476, 98)" class="key keypos-15">
<rect rx="6" ry="6" x="-26" y="-26" width="52" height="52" class="key"/>
<text x="0" y="0" class="key tap">UP</text>
</g>
<g transform="translate(532, 91)" class="key keypos-16">
<rect rx="6" ry="6" x="-26" y="-26" width="52" height="52" class="key"/>
<text x="0" y="0" class="key tap">LEFT</text>
</g>
<g transform="translate(588, 84)" class="key keypos-17">
<rect rx="6" ry="6" x="-26" y="-26" width="52" height="52" class="key"/>
<text x="0" y="0" class="key tap">DOWN</text>
</g>
<g transform="translate(644, 91)" class="key keypos-18">
<rect rx="6" ry="6" x="-26" y="-26" width="52" height="52" class="key"/>
<text x="0" y="0" class="key tap">RIGHT</text>
</g>
<g transform="translate(700, 105)" class="key keypos-19">
<rect rx="6" ry="6" x="-26" y="-26" width="52" height="52" class="key"/>
<text x="0" y="0" class="key tap">`</text>
</g>
<g transform="translate(28, 161)" class="key trans keypos-20">
<rect rx="6" ry="6" x="-26" y="-26" width="52" height="52" class="key trans"/>
<text x="0" y="0" class="key trans tap">▽</text>
</g>
<g transform="translate(84, 147)" class="key trans keypos-21">
<rect rx="6" ry="6" x="-26" y="-26" width="52" height="52" class="key trans"/>
<text x="0" y="0" class="key trans tap">▽</text>
</g>
<g transform="translate(140, 140)" class="key trans keypos-22">
<rect rx="6" ry="6" x="-26" y="-26" width="52" height="52" class="key trans"/>
<text x="0" y="0" class="key trans tap">▽</text>
</g>
<g transform="translate(196, 147)" class="key trans keypos-23">
<rect rx="6" ry="6" x="-26" y="-26" width="52" height="52" class="key trans"/>
<text x="0" y="0" class="key trans tap">▽</text>
</g>
<g transform="translate(252, 154)" class="key trans keypos-24">
<rect rx="6" ry="6" x="-26" y="-26" width="52" height="52" class="key trans"/>
<text x="0" y="0" class="key trans tap">▽</text>
</g>
<g transform="translate(476, 154)" class="key trans keypos-25">
<rect rx="6" ry="6" x="-26" y="-26" width="52" height="52" class="key trans"/>
<text x="0" y="0" class="key trans tap">▽</text>
</g>
<g transform="translate(532, 147)" class="key trans keypos-26">
<rect rx="6" ry="6" x="-26" y="-26" width="52" height="52" class="key trans"/>
<text x="0" y="0" class="key trans tap">▽</text>
</g>
<g transform="translate(588, 140)" class="key trans keypos-27">
<rect rx="6" ry="6" x="-26" y="-26" width="52" height="52" class="key trans"/>
<text x="0" y="0" class="key trans tap">▽</text>
</g>
<g transform="translate(644, 147)" class="key trans keypos-28">
<rect rx="6" ry="6" x="-26" y="-26" width="52" height="52" class="key trans"/>
<text x="0" y="0" class="key trans tap">▽</text>
</g>
<g transform="translate(700, 161)" class="key keypos-29">
<rect rx="6" ry="6" x="-26" y="-26" width="52" height="52" class="key"/>
<text x="0" y="0" class="key tap">´</text>
</g>
<g transform="translate(168, 205)" class="key ghost keypos-30">
<rect rx="6" ry="6" x="-26" y="-26" width="52" height="52" class="key ghost"/>
</g>
<g transform="translate(230, 213) rotate(15.0)" class="key held keypos-31">
<rect rx="6" ry="6" x="-26" y="-26" width="52" height="52" class="key held"/>
<text x="0" y="0" class="key held tap">
<tspan x="0" dy="-0.6em">Task</tspan><tspan x="0" dy="1.2em">Mgr</tspan>
</text>
</g>
<g transform="translate(295, 224) rotate(30.0)" class="key trans keypos-32">
<rect rx="6" ry="6" x="-26" y="-40" width="52" height="80" class="key trans"/>
<text x="0" y="0" class="key trans tap">▽</text>
</g>
<g transform="translate(433, 224) rotate(-30.0)" class="key trans keypos-33">
<rect rx="6" ry="6" x="-26" y="-40" width="52" height="80" class="key trans"/>
<text x="0" y="0" class="key trans tap">▽</text>
</g>
<g transform="translate(498, 213) rotate(-15.0)" class="key held keypos-34">
<rect rx="6" ry="6" x="-26" y="-26" width="52" height="52" class="key held"/>
<text x="0" y="0" class="key held tap">&amp;nbsp</text>
</g>
<g transform="translate(560, 205)" class="key trans keypos-35">
<rect rx="6" ry="6" x="-26" y="-26" width="52" height="52" class="key trans"/>
<text x="0" y="0" class="key trans tap">▽</text>
</g>
</g>
</g>
<g transform="translate(30, 992)" class="layer-adjust">
<text x="0" y="28" class="label" id="adjust">adjust:</text>
<g transform="translate(0, 56)">
<g transform="translate(28, 49)" class="key keypos-0">
<rect rx="6" ry="6" x="-26" y="-26" width="52" height="52" class="key"/>
<use href="#mdi:bluetooth-off" xlink:href="#mdi:bluetooth-off" x="-7" y="-7" height="14" width="14.0" class="key tap glyph mdi:bluetooth-off"/>
</g>
<g transform="translate(84, 35)" class="key trans keypos-1">
<rect rx="6" ry="6" x="-26" y="-26" width="52" height="52" class="key trans"/>
<text x="0" y="0" class="key trans tap">▽</text>
</g>
<g transform="translate(140, 28)" class="key trans keypos-2">
<rect rx="6" ry="6" x="-26" y="-26" width="52" height="52" class="key trans"/>
<text x="0" y="0" class="key trans tap">▽</text>
</g>
<g transform="translate(196, 35)" class="key trans keypos-3">
<rect rx="6" ry="6" x="-26" y="-26" width="52" height="52" class="key trans"/>
<text x="0" y="0" class="key trans tap">▽</text>
</g>
<g transform="translate(252, 42)" class="key trans keypos-4">
<rect rx="6" ry="6" x="-26" y="-26" width="52" height="52" class="key trans"/>
<text x="0" y="0" class="key trans tap">▽</text>
</g>
<g transform="translate(476, 42)" class="key keypos-5">
<rect rx="6" ry="6" x="-26" y="-26" width="52" height="52" class="key"/>
<use href="#mdi:cosine-wave" xlink:href="#mdi:cosine-wave" x="-7" y="-7" height="14" width="14.0" class="key tap glyph mdi:cosine-wave"/>
<text x="0" y="-24" class="key shifted">Mode</text>
</g>
<g transform="translate(532, 35)" class="key keypos-6">
<rect rx="6" ry="6" x="-26" y="-26" width="52" height="52" class="key"/>
<use href="#mdi:brightness-7" xlink:href="#mdi:brightness-7" x="-7" y="-7" height="14" width="14.0" class="key tap glyph mdi:brightness-7"/>
<text x="0" y="-24" class="key shifted">Bri+</text>
</g>
<g transform="translate(588, 28)" class="key keypos-7">
<rect rx="6" ry="6" x="-26" y="-26" width="52" height="52" class="key"/>
<use href="#mdi:palette" xlink:href="#mdi:palette" x="-7" y="-7" height="14" width="14.0" class="key tap glyph mdi:palette"/>
<text x="0" y="-24" class="key shifted">Sat+</text>
</g>
<g transform="translate(644, 35)" class="key keypos-8">
<rect rx="6" ry="6" x="-26" y="-26" width="52" height="52" class="key"/>
<use href="#mdi:palette-swatch" xlink:href="#mdi:palette-swatch" x="-7" y="-7" height="14" width="14.0" class="key tap glyph mdi:palette-swatch"/>
<text x="0" y="-24" class="key shifted">Hue+</text>
</g>
<g transform="translate(700, 49)" class="key keypos-9">
<rect rx="6" ry="6" x="-26" y="-26" width="52" height="52" class="key"/>
<text x="0" y="0" class="key tap">✕</text>
</g>
<g transform="translate(28, 105)" class="key keypos-10">
<rect rx="6" ry="6" x="-26" y="-26" width="52" height="52" class="key"/>
<use href="#mdi:bluetooth" xlink:href="#mdi:bluetooth" x="-7" y="-7" height="14" width="14.0" class="key tap glyph mdi:bluetooth"/>
<text x="0" y="24" class="key hold">PC</text>
<text x="0" y="-24" class="key shifted">⓵</text>
</g>
<g transform="translate(84, 91)" class="key keypos-11">
<rect rx="6" ry="6" x="-26" y="-26" width="52" height="52" class="key"/>
<use href="#mdi:bluetooth" xlink:href="#mdi:bluetooth" x="-7" y="-7" height="14" width="14.0" class="key tap glyph mdi:bluetooth"/>
<text x="0" y="24" class="key hold">S8</text>
<text x="0" y="-24" class="key shifted">⓶</text>
</g>
<g transform="translate(140, 84)" class="key keypos-12">
<rect rx="6" ry="6" x="-26" y="-26" width="52" height="52" class="key"/>
<use href="#mdi:bluetooth" xlink:href="#mdi:bluetooth" x="-7" y="-7" height="14" width="14.0" class="key tap glyph mdi:bluetooth"/>
<text x="0" y="24" class="key hold">Zbook</text>
<text x="0" y="-24" class="key shifted">⓷</text>
</g>
<g transform="translate(196, 91)" class="key keypos-13">
<rect rx="6" ry="6" x="-26" y="-26" width="52" height="52" class="key"/>
<use href="#mdi:bluetooth" xlink:href="#mdi:bluetooth" x="-7" y="-7" height="14" width="14.0" class="key tap glyph mdi:bluetooth"/>
<text x="0" y="-24" class="key shifted">⓸</text>
</g>
<g transform="translate(252, 98)" class="key keypos-14">
<rect rx="6" ry="6" x="-26" y="-26" width="52" height="52" class="key"/>
<use href="#mdi:bluetooth" xlink:href="#mdi:bluetooth" x="-7" y="-7" height="14" width="14.0" class="key tap glyph mdi:bluetooth"/>
<text x="0" y="-24" class="key shifted">⓹</text>
</g>
<g transform="translate(476, 98)" class="key keypos-15">
<rect rx="6" ry="6" x="-26" y="-26" width="52" height="52" class="key"/>
<use href="#mdi:cosine-wave" xlink:href="#mdi:cosine-wave" x="-7" y="-7" height="14" width="14.0" class="key tap glyph mdi:cosine-wave"/>
<text x="0" y="-24" class="key shifted">Rev</text>
</g>
<g transform="translate(532, 91)" class="key keypos-16">
<rect rx="6" ry="6" x="-26" y="-26" width="52" height="52" class="key"/>
<use href="#mdi:brightness-4" xlink:href="#mdi:brightness-4" x="-7" y="-7" height="14" width="14.0" class="key tap glyph mdi:brightness-4"/>
<text x="0" y="-24" class="key shifted">Bri-</text>
</g>
<g transform="translate(588, 84)" class="key keypos-17">
<rect rx="6" ry="6" x="-26" y="-26" width="52" height="52" class="key"/>
<use href="#mdi:palette-outline" xlink:href="#mdi:palette-outline" x="-7" y="-7" height="14" width="14.0" class="key tap glyph mdi:palette-outline"/>
<text x="0" y="-24" class="key shifted">Sat-</text>
</g>
<g transform="translate(644, 91)" class="key keypos-18">
<rect rx="6" ry="6" x="-26" y="-26" width="52" height="52" class="key"/>
<use href="#mdi:palette-swatch-outline" xlink:href="#mdi:palette-swatch-outline" x="-7" y="-7" height="14" width="14.0" class="key tap glyph mdi:palette-swatch-outline"/>
<text x="0" y="-24" class="key shifted">Hue-</text>
</g>
<g transform="translate(700, 105)" class="key trans keypos-19">
<rect rx="6" ry="6" x="-26" y="-26" width="52" height="52" class="key trans"/>
<text x="0" y="0" class="key trans tap">▽</text>
</g>
<g transform="translate(28, 161)" class="key keypos-20">
<rect rx="6" ry="6" x="-26" y="-26" width="52" height="52" class="key"/>
<use href="#mdi:usb" xlink:href="#mdi:usb" x="-7" y="-7" height="14" width="14.0" class="key tap glyph mdi:usb"/>
</g>
<g transform="translate(84, 147)" class="key keypos-21">
<rect rx="6" ry="6" x="-26" y="-26" width="52" height="52" class="key"/>
<text x="0" y="0" class="key tap">Pwr±</text>
</g>
<g transform="translate(140, 140)" class="key trans keypos-22">
<rect rx="6" ry="6" x="-26" y="-26" width="52" height="52" class="key trans"/>
<text x="0" y="0" class="key trans tap">▽</text>
</g>
<g transform="translate(196, 147)" class="key trans keypos-23">
<rect rx="6" ry="6" x="-26" y="-26" width="52" height="52" class="key trans"/>
<text x="0" y="0" class="key trans tap">▽</text>
</g>
<g transform="translate(252, 154)" class="key trans keypos-24">
<rect rx="6" ry="6" x="-26" y="-26" width="52" height="52" class="key trans"/>
<text x="0" y="0" class="key trans tap">▽</text>
</g>
<g transform="translate(476, 154)" class="key trans keypos-25">
<rect rx="6" ry="6" x="-26" y="-26" width="52" height="52" class="key trans"/>
<text x="0" y="0" class="key trans tap">▽</text>
</g>
<g transform="translate(532, 147)" class="key trans keypos-26">
<rect rx="6" ry="6" x="-26" y="-26" width="52" height="52" class="key trans"/>
<text x="0" y="0" class="key trans tap">▽</text>
</g>
<g transform="translate(588, 140)" class="key keypos-27">
<rect rx="6" ry="6" x="-26" y="-26" width="52" height="52" class="key"/>
<text x="0" y="0" class="key tap">⏮</text>
</g>
<g transform="translate(644, 147)" class="key keypos-28">
<rect rx="6" ry="6" x="-26" y="-26" width="52" height="52" class="key"/>
<text x="0" y="0" class="key tap">⏭</text>
</g>
<g transform="translate(700, 161)" class="key trans keypos-29">
<rect rx="6" ry="6" x="-26" y="-26" width="52" height="52" class="key trans"/>
<text x="0" y="0" class="key trans tap">▽</text>
</g>
<g transform="translate(168, 205)" class="key ghost keypos-30">
<rect rx="6" ry="6" x="-26" y="-26" width="52" height="52" class="key ghost"/>
</g>
<g transform="translate(230, 213) rotate(15.0)" class="key trans keypos-31">
<rect rx="6" ry="6" x="-26" y="-26" width="52" height="52" class="key trans"/>
<text x="0" y="0" class="key trans tap">▽</text>
</g>
<g transform="translate(295, 224) rotate(30.0)" class="key trans keypos-32">
<rect rx="6" ry="6" x="-26" y="-40" width="52" height="80" class="key trans"/>
<text x="0" y="0" class="key trans tap">▽</text>
</g>
<g transform="translate(433, 224) rotate(-30.0)" class="key keypos-33">
<rect rx="6" ry="6" x="-26" y="-40" width="52" height="80" class="key"/>
<use href="#mdi:lightbulb-on" xlink:href="#mdi:lightbulb-on" x="-7" y="-7" height="14" width="14.0" class="key tap glyph mdi:lightbulb-on"/>
<text x="0" y="-38" class="key shifted">OnOff</text>
</g>
<g transform="translate(498, 213) rotate(-15.0)" class="key trans keypos-34">
<rect rx="6" ry="6" x="-26" y="-26" width="52" height="52" class="key trans"/>
<text x="0" y="0" class="key trans tap">▽</text>
</g>
<g transform="translate(560, 205)" class="key held keypos-35">
<rect rx="6" ry="6" x="-26" y="-26" width="52" height="52" class="key held"/>
</g>
</g>
</g>
</svg>
